<?xml version="1.0" encoding="UTF-8" standalone="no"?>
<!-- Created with Inkscape (http://www.inkscape.org/) -->

<svg
   xmlns:dc="http://purl.org/dc/elements/1.1/"
   xmlns:cc="http://creativecommons.org/ns#"
   xmlns:rdf="http://www.w3.org/1999/02/22-rdf-syntax-ns#"
   xmlns:svg="http://www.w3.org/2000/svg"
   xmlns="http://www.w3.org/2000/svg"
   xmlns:sodipodi="http://sodipodi.sourceforge.net/DTD/sodipodi-0.dtd"
   xmlns:inkscape="http://www.inkscape.org/namespaces/inkscape"
   id="svg3087"
   version="1.1"
   inkscape:version="0.48.4 r9939"
   width="605"
   height="854"
   sodipodi:docname="logo-footer.png">
  <metadata
     id="metadata3093">
    <rdf:RDF>
      <cc:Work
         rdf:about="">
        <dc:format>image/svg+xml</dc:format>
        <dc:type
           rdf:resource="http://purl.org/dc/dcmitype/StillImage" />
        <dc:title></dc:title>
      </cc:Work>
    </rdf:RDF>
  </metadata>
  <defs
     id="defs3091" />
  <sodipodi:namedview
     pagecolor="#ffffff"
     bordercolor="#666666"
     borderopacity="1"
     objecttolerance="10"
     gridtolerance="10"
     guidetolerance="10"
     inkscape:pageopacity="0"
     inkscape:pageshadow="2"
     inkscape:window-width="1366"
     inkscape:window-height="711"
     id="namedview3089"
     showgrid="false"
     inkscape:zoom="0.28103044"
     inkscape:cx="302.5"
     inkscape:cy="427"
     inkscape:window-x="0"
     inkscape:window-y="33"
     inkscape:window-maximized="1"
     inkscape:current-layer="svg3087" />
  <path
     inkscape:connector-curvature="0"
     id="path3099"
     d="m 300.67503,856.55833 c 0,-0.55 -0.8685,-1 -1.9301,-1 -1.8767,0 -27.5068,-37.90382 -141.32336,-209 -17.01299,-25.575 -31.89466,-47.85 -33.07037,-49.5 -1.17571,-1.65 -27.975787,-41.7 -59.555737,-89 -35.67884,-53.43927 -57.8171397,-87.51445 -58.4720797,-90 -1.60123,-6.07686 -2.08292,-257.25199 -0.49909,-260.25 2.15812,-4.08507 6.2458997,-2.98279 13.1872597,3.55596 7.93566,7.47537 15.59881,14.54892 18.27206,16.86621 2.19935,1.90648 19.02695,17.4048 30.3332,27.93706 3.607,3.36008 9.23549,8.53508 12.50775,11.5 3.27226,2.96493 8.89726,8.13993 12.5,11.5 3.60274,3.36008 9.227737,8.53508 12.500007,11.5 3.27226,2.96493 8.89726,8.15059 12.5,11.5237 3.60273,3.37311 8.75735,8.09811 11.45469,10.5 5.12436,4.56307 6.86351,6.16028 17.67784,16.23508 3.62015,3.37259 11.01451,10.18199 16.43192,15.13199 5.4174,4.95 10.7979,9.9 11.95668,11 1.15877,1.1 4.5644,4.21459 7.56808,6.92131 3.00367,2.70673 8.16122,7.43173 11.46122,10.5 3.3,3.06828 11.4,10.52869 18,16.57869 6.6,6.05 12.22503,11.225 12.50003,11.5 0.3825,0.3825 18.3246,16.86597 25.5795,23.5 0.6015,0.55 5.9602,5.5 11.9083,11 5.9481,5.5 11.3173,10.45 11.9315,11 0.9498,0.85036 10.9292,10.00947 29.323,26.91268 l 4.2577,3.91269 0,213.90874 c 0,184.05425 -0.1994,214.10813 -1.4286,215.33732 -1.6298,1.62984 -5.5714,1.93304 -5.5714,0.42857 z m -2,-223.11221 0,-185.11221 -3.6866,5.36221 c -2.0276,2.94921 -9.1151,13.01454 -15.75,22.36738 -6.6349,9.35285 -13.3214,18.80285 -14.8589,21 -1.5375,2.19716 -5.2255,7.36983 -8.1956,11.49483 -2.9701,4.125 -7.9203,11.1 -11.0004,15.5 -3.08,4.4 -8.485,12.05 -12.011,17 -3.526,4.95 -8.659,12.22089 -11.40669,16.15753 l -4.99577,7.15753 10.01596,31.34247 c 5.5088,17.23836 11.2894,35.39247 12.8458,40.34247 1.5563,4.95 7.1858,22.5 12.51,39 5.3241,16.5 11.1774,34.725 13.0072,40.5 4.4595,14.07453 8.1384,25.54894 16.0307,50 7.8843,24.42626 11.9284,37.12031 14.7345,46.25 1.1411,3.7125 2.2291,6.75 2.4177,6.75 0.1887,0 0.3431,-83.3005 0.3431,-185.11221 z m -16.2032,171.86221 c -6.3855,-19.5735 -52.2944,-162.67663 -69.17599,-215.62899 l -7.13458,-22.37899 -8.99313,-2.25522 c -4.94622,-1.24036 -16.64313,-4.08847 -25.99313,-6.32912 -9.35,-2.24065 -28.41623,-6.81402 -42.36941,-10.16306 -13.95317,-3.34903 -25.54039,-5.91815 -25.74938,-5.70917 -0.31489,0.31489 8.67382,14.02554 31.28168,47.71455 1.66091,2.475 12.42873,18.675 23.92848,36 11.49974,17.325 21.14348,31.725 21.43051,32 0.28703,0.275 2.52719,3.65 4.97812,7.5 2.45093,3.85 4.69109,7.225 4.97812,7.5 0.28703,0.275 22.04816,32.7875 48.35801,72.25 26.3099,39.4625 47.9759,71.75 48.1466,71.75 0.1707,0 -1.488,-5.5125 -3.6859,-12.25 z M 210.33849,552.60871 c 1.56008,-2.17229 5.08651,-7.18294 7.83651,-11.13477 2.75,-3.95183 7.02503,-10.01452 9.50003,-13.47265 2.475,-3.45813 5.0638,-7.10998 5.753,-8.11523 0.6892,-1.00525 5.7342,-8.12773 11.2112,-15.82773 5.4769,-7.7 10.4269,-14.675 11,-15.5 0.573,-0.825 5.428,-7.68701 10.7888,-15.24891 5.3608,-7.56191 11.997,-16.96005 14.747,-20.88477 2.75,-3.92472 7.1027,-10.05531 9.6726,-13.62353 l 4.6726,-6.48768 -5.1726,-4.77216 c -2.8449,-2.62469 -6.7837,-6.28209 -8.7528,-8.12756 -1.9692,-1.84546 -7.7831,-7.18039 -12.9198,-11.85539 -5.1368,-4.675 -10.9507,-10.01094 -12.9198,-11.85764 -1.9691,-1.8467 -7.4052,-6.86076 -12.0802,-11.14236 -4.675,-4.2816 -10.1129,-9.29566 -12.0843,-11.14236 -1.9713,-1.8467 -6.2463,-5.78348 -9.49997,-8.74841 -3.25367,-2.96492 -8.87462,-8.13992 -12.491,-11.5 -14.30737,-13.29337 -16.47127,-15.2483 -17.69532,-15.98646 -0.91279,-0.55046 -3.48077,3.82971 -9.11978,15.55551 -7.52021,15.63758 -11.82411,24.54371 -30.11704,62.32172 -16.17493,33.40396 -23.28754,48.1453 -27.98467,58 -2.62151,5.5 -9.02356,18.775 -14.22677,29.5 -12.837337,26.46067 -13.096187,27.02143 -12.662087,27.43019 0.2095,0.19727 11.126617,2.92571 24.260257,6.06318 13.13364,3.13748 37.20864,8.98821 53.5,13.00163 16.29136,4.01341 30.14422,7.34389 30.78414,7.40106 0.63992,0.0572 2.43992,-1.67339 4,-3.84568 z M 90.643193,517.4359 c 0.0175,-0.34233 4.3531,-9.56733 9.634667,-20.5 5.28158,-10.93266 12.31794,-25.50257 15.63636,-32.37757 17.75502,-36.78428 26.18229,-54.2086 44.25397,-91.5 4.79761,-9.9 11.19624,-23.175 14.21919,-29.5 3.02294,-6.325 5.70087,-11.8375 5.95096,-12.25 0.25008,-0.4125 -37.59686,-0.75 -84.104327,-0.75 l -84.55901,0 0,38.14178 0,38.14179 38.22061,57.24764 c 32.8928,49.26756 38.39451,57.01912 39.46819,55.60822 0.68617,-0.90169 1.2619,-1.91952 1.27939,-2.26186 z M 171.675,318.38901 c -1.925,-1.71088 -6.2,-5.63519 -9.5,-8.72069 -5.35023,-5.00245 -21.17027,-19.54824 -34.92291,-32.10999 -2.70964,-2.475 -7.88547,-7.24916 -11.50185,-10.60923 -3.61638,-3.36008 -9.25254,-8.53508 -12.52481,-11.5 -3.272257,-2.96493 -8.897257,-8.13993 -12.499997,-11.5 -3.60274,-3.36008 -9.22774,-8.53508 -12.5,-11.5 -3.27226,-2.96493 -8.89726,-8.13993 -12.5,-11.5 -3.60274,-3.36008 -9.21253,-8.53508 -12.46619,-11.5 -3.25367,-2.96493 -7.52867,-6.90171 -9.5,-8.74841 -3.91919,-3.6714 -20.71195,-19.03655 -22.5603,-20.64236 -0.63307,-0.55 -3.03494,-2.77883 -5.33749,-4.95295 l -4.18645,-3.95295 0,75.20295 0,75.20295 81.75,-0.0293 81.749997,-0.0293 -3.5,-3.11069 z M 314.92503,856.0625 c -0.9917,-1.12638 -1.25,-45.71994 -1.25,-215.80133 l 0,-214.38157 3.7649,-3.41064 c 2.0706,-1.87585 8.0297,-7.23563 13.2423,-11.91063 5.2126,-4.675 9.9695,-8.95 10.5709,-9.5 1.1622,-1.06287 14.5404,-12.97422 17.4087,-15.5 0.9369,-0.825 5.2606,-4.72727 9.6083,-8.6717 4.3477,-3.94444 8.8536,-7.99444 10.0132,-9 1.1596,-1.00557 5.3858,-4.7533 9.3917,-8.3283 4.0058,-3.575 8.0583,-7.175 9.0055,-8 0.9472,-0.825 4.1764,-3.75 7.1759,-6.5 2.9995,-2.75 8.7597,-7.925 12.8003,-11.5 4.0407,-3.575 7.8387,-6.95 8.4401,-7.5 0.6015,-0.55 5.3616,-4.825 10.5782,-9.5 5.2165,-4.675 9.9767,-8.95 10.5781,-9.5 0.6014,-0.55 4.4021,-3.925 8.446,-7.5 4.0438,-3.575 9.6302,-8.62453 12.4142,-11.22117 4.4002,-4.10424 5.6283,-4.72494 9.3982,-4.75 4.5941,-0.0305 4.0901,-0.41007 21.2115,15.97117 2.012,1.925 10.5784,10.025 19.0365,18 8.4581,7.975 16.9617,16.00812 18.8969,17.85138 1.9352,1.84326 9.3455,8.81826 16.4672,15.5 7.1218,6.68174 17.4718,16.45579 23,21.72012 21.4558,20.43145 26.8723,25.51237 29.6612,27.82353 1.6523,1.36918 2.8902,3.37845 2.8902,4.69099 0,1.26277 0.493,2.60065 1.0956,2.97307 1.0882,0.67255 0.8986,3.13115 -0.8439,10.94351 -0.4918,2.20532 -4.7196,9.83882 -9.4152,17 -8.7145,13.29019 -16.7185,25.5891 -28.4701,43.7474 -3.6485,5.6375 -9.4278,14.525 -12.8431,19.75 -16.2254,24.82355 -28.5883,43.82254 -41.3202,63.5 -3.5586,5.5 -9.2645,14.275 -12.6798,19.5 -16.2254,24.82355 -28.5883,43.82254 -41.3202,63.5 -3.5586,5.5 -9.2645,14.275 -12.6798,19.5 -16.1469,24.7035 -27.0734,41.49562 -40.9936,63 -3.7383,5.775 -9.5911,14.775 -13.0064,20 -15.4975,23.70998 -25.678,39.35183 -41.1663,63.25 -23.544,36.32819 -28.7177,43.75 -30.4978,43.75 -1.0226,0 -1.8592,0.45 -1.8592,1 0,1.51422 -5.3247,1.12309 -6.75,-0.49583 z m 28.2688,-49.50417 c 2.6584,-4.125 9.0951,-14.025 14.3039,-22 5.2087,-7.975 11.9532,-18.325 14.9878,-23 3.0347,-4.675 8.75,-13.45 12.7009,-19.5 8.8301,-13.52157 17.2645,-26.57636 20.8918,-32.33632 l 2.7308,-4.33632 0.5411,-98.66368 0.541,-98.66368 -42.3581,-28.13012 c -23.2969,-15.47156 -42.9205,-28.43562 -43.608,-28.80902 -0.9981,-0.54205 -1.25,38.38439 -1.25,193.11459 l 0,193.79348 7.8427,-11.98446 c 4.3134,-6.59146 10.0177,-15.35947 12.6761,-19.48447 z m 95.9826,-147.5 c 3.956,-6.05 9.3659,-14.375 12.0218,-18.5 2.656,-4.125 9.0907,-14.025 14.2995,-22 5.2087,-7.975 11.9532,-18.325 14.9878,-23 3.0347,-4.675 8.7499,-13.45 12.7006,-19.5 3.9507,-6.05 9.3562,-14.375 12.0121,-18.5 2.656,-4.125 9.0907,-14.025 14.2995,-22 5.2087,-7.975 11.9532,-18.325 14.9878,-23 3.0347,-4.675 8.75,-13.45 12.7009,-19.5 3.9509,-6.05 9.6595,-14.825 12.6858,-19.5 18.3882,-28.40548 25.2792,-38.98025 27.8768,-42.77924 3.5992,-5.26387 3.6102,-5.49295 0.176,-3.66002 -2.6686,1.42425 -30.5378,14.79933 -46.75,22.43637 -4.4,2.0727 -14.75,7.024 -23,11.00289 -8.25,3.97889 -18.6,8.92923 -23,11.00076 -4.4,2.07153 -14.3,6.80062 -22,10.50909 -7.7,3.70847 -19.625,9.41593 -26.5,12.68325 -6.875,3.26731 -15.9793,7.598 -20.2318,9.62374 l -7.7318,3.68316 -0.018,67.58807 c -0.01,37.17344 -0.2866,78.57344 -0.6145,92 l -0.5964,24.41193 7.2506,-11 c 3.9879,-6.05 10.4874,-15.95 14.4435,-22 z m -21.5586,-186.5 c 9.2774,-32.23224 20.4683,-70.98676 24.4004,-84.5 12.423,-42.69335 21.0886,-72.66588 22.2176,-76.84599 l 1.3088,-4.84599 -2.1842,1.84599 c -2.5708,2.17273 -19.9568,17.60863 -20.6854,18.36518 -0.275,0.28555 -6.8,6.12692 -14.5,12.98081 -7.7,6.85389 -14.225,12.70949 -14.5,13.01244 -0.275,0.30295 -8.825,7.94735 -19,16.98756 -10.175,9.04021 -18.725,16.69021 -19,17 -0.275,0.30979 -8.825,7.96295 -19,17.00702 -10.175,9.04407 -20.525,18.32862 -23,20.63234 -2.475,2.30373 -6.075,5.55922 -8,7.23443 -3.0918,2.69055 -3.3251,3.21383 -2,4.48598 1.8583,1.78418 87.2478,58.74083 87.5418,58.3923 0.1169,-0.13864 2.9974,-9.92707 6.401,-21.75207 z m 23.1022,12.19303 c 4.6503,-2.18954 14.305,-6.78322 21.455,-10.20818 7.15,-3.42495 17.95,-8.5944 24,-11.48766 6.05,-2.89325 16.175,-7.73546 22.5,-10.76046 6.325,-3.025 16.675,-7.97353 23,-10.99674 6.325,-3.0232 18.025,-8.62694 26,-12.45275 7.975,-3.82581 20.0575,-9.60345 26.85,-12.83921 l 12.3501,-5.88319 -8.3758,-8.03242 c -4.6067,-4.41783 -15.5425,-14.78242 -24.3018,-23.03242 -8.7592,-8.25 -19.5094,-18.375 -23.8893,-22.5 -4.3799,-4.125 -9.8455,-9.3 -12.1458,-11.5 -2.3003,-2.2 -10.6377,-10.075 -18.5276,-17.5 -7.8899,-7.425 -17.9684,-16.95268 -22.3966,-21.17263 -4.4282,-4.21995 -8.1206,-7.59495 -8.2052,-7.5 -0.085,0.095 -1.7429,5.79763 -3.685,12.67263 -1.9421,6.875 -5.5528,19.475 -8.0237,28 -2.471,8.525 -7.415,25.625 -10.9866,38 -3.5717,12.375 -8.0757,27.9 -10.0089,34.5 -1.9332,6.6 -7.8398,27.075 -13.1257,45.5 -5.2859,18.425 -9.8032,34.06303 -10.0385,34.75117 -0.2521,0.73741 1.5285,0.25985 4.3364,-1.163 2.6202,-1.32779 8.5688,-4.2056 13.219,-6.39514 z m -140.545,-74.86164 c -15.4404,-14.43963 -18.3729,-17.15546 -23.5062,-21.7694 -3.0216,-2.7159 -8.4415,-7.6659 -12.0443,-11 -3.6027,-3.33409 -9.2277,-8.48783 -12.5,-11.45276 -3.2722,-2.96492 -8.8972,-8.13992 -12.5,-11.5 -3.6027,-3.36007 -9.2277,-8.53507 -12.5,-11.5 -3.27223,-2.96492 -8.89723,-8.13992 -12.49996,-11.5 -3.60274,-3.36007 -9.22774,-8.53507 -12.5,-11.5 -3.27227,-2.96492 -8.89727,-8.13992 -12.5,-11.5 -3.60274,-3.36007 -9.22774,-8.52742 -12.5,-11.48299 -3.27227,-2.95557 -8.65233,-7.90557 -11.95571,-11 -3.30338,-3.09443 -8.47838,-7.84083 -11.5,-10.54755 -3.02162,-2.70673 -8.19386,-7.43173 -11.49386,-10.5 -5.50549,-5.1189 -22.92708,-21.12163 -34.92291,-32.07869 -2.70964,-2.475 -7.885467,-7.24916 -11.501847,-10.60923 -3.61639,-3.36008 -9.25255,-8.53508 -12.52481,-11.5 -3.27226,-2.96493 -8.89726,-8.13993 -12.5,-11.5 -3.60274,-3.36008 -9.22774,-8.53508 -12.5,-11.5 -3.27226,-2.96493 -8.89726,-8.13993 -12.5,-11.5 -3.60274,-3.36008 -9.25043,-8.53472 -12.55043,-11.4992 -3.3,-2.96449 -9.15,-8.35807 -13,-11.98576 -3.85,-3.62768 -8.4625,-7.86492 -10.2499997,-9.41609 -1.93331,-1.67771 -3.25,-3.76619 -3.25,-5.15502 0,-1.28408 -0.45,-2.3347 -1,-2.3347 -2.21607,0 -0.29344,-7.21095 2.44801,-9.18139 0.5214,-0.37477 7.4963997,-3.38444 15.4999997,-6.68815 C 66.962453,101.79918 152.78914,66.253943 156.675,64.585143 c 2.475,-1.06291 7.875,-3.32497 12,-5.02681 4.125,-1.70184 9.525,-3.96128 12,-5.02098 2.475,-1.0597 19.35,-8.04752 37.5,-15.5285 18.15003,-7.48097 34.90763,-14.46774 37.23913,-15.52614 2.3315,-1.05841 4.4937,-1.92438 4.8048,-1.92438 0.3112,0 2.4536,-0.85953 4.7609,-1.91007 2.3074,-1.05053 6.6702,-2.89328 9.6952,-4.09499 13.4377,-5.33827 15.4864,-6.1951197 18.3388,-7.6701497 3.479,-1.79907 14.0834,-3.62842 20.6612,-3.56424 6.4572,0.063 16.0076,1.79761 19.5,3.54171 1.65,0.82401 6.375,2.9460097 10.5,4.7155397 4.125,1.76953 9.3,4.00842 11.5,4.9753 15.3238,6.73468 37.8697,16.60175 48,21.0069 6.6,2.87001 18.975,8.27787 27.5,12.01749 8.525,3.73961 35.3,15.43004 59.5,25.97873 24.2,10.5487 49.625,21.67507 56.5,24.725267 14.4423,6.40758 17.7552,7.86011 28,12.27662 4.125,1.77828 9.75,4.2266 12.5,5.44071 2.75,1.2141 8.4875,3.71837 12.75,5.56504 5.5963,2.42454 7.75,3.86314 7.75,5.17686 0,1.0006 0.45,1.81928 1,1.81928 0.55,0 1,1.32344 1,2.94098 0,1.61754 -0.45,3.2191 -1,3.55902 -0.55,0.33992 -1.0389,1.60398 -1.0864,2.80902 -0.059,1.5047 -5.9324,7.60039 -18.75,19.46088 -10.265,9.49844 -20.6895,19.17344 -23.1655,21.5 -5.6046,5.26616 -33.0709,30.87079 -34.5736,32.2301 -0.6081,0.55 -7.5391,7.075 -15.4024,14.5 -7.8633,7.425 -15.1005,14.19783 -16.0827,15.05073 -1.7381,1.50917 -19.7264,18.28868 -36.9312,34.44927 -4.6843,4.4 -15.0349,14.075 -23.0015,21.5 -7.9665,7.425 -17.8381,16.65 -21.9368,20.5 -4.0987,3.85 -8.4176,7.9 -9.5974,9 -12.3648,11.52808 -18.1039,16.89266 -24.5148,22.91493 -4.1483,3.89679 -13.598,12.71007 -20.9993,19.58507 -7.4012,6.875 -16.8057,15.65 -20.8988,19.5 -4.0931,3.85 -8.4073,7.9 -9.5871,9 -1.1798,1.1 -5.3704,5.0375 -9.3123,8.75 -6.7949,6.39938 -7.4137,6.74851 -11.9137,6.72126 -4.3691,-0.0264 -5.2236,-0.47488 -10.7465,-5.63987 z m 28.0195,-22.83139 c 0.6434,-0.55 7.1243,-6.60217 14.4019,-13.44927 7.2777,-6.8471 14.063,-13.16993 15.0786,-14.05073 1.0155,-0.8808 7.7655,-7.1808 15,-14 7.2344,-6.8192 14.075,-13.19778 15.2013,-14.17462 1.1263,-0.97684 5.4983,-5.04967 9.7156,-9.05073 11.4188,-10.83348 33.9709,-31.9428 36.0831,-33.77465 1.0155,-0.8808 7.7655,-7.1808 15,-14 7.2344,-6.8192 14.075,-13.19778 15.2013,-14.17462 1.1263,-0.97684 5.4983,-5.04967 9.7156,-9.05073 11.8856,-11.27637 34.0073,-31.97437 36.2844,-33.94927 1.1263,-0.97684 5.4983,-5.04967 9.7156,-9.05073 11.4188,-10.83348 33.9709,-31.9428 36.0831,-33.77465 1.0155,-0.8808 7.6185,-7.01888 14.6732,-13.64017 7.0547,-6.62129 15.4938,-14.51776 18.7535,-17.54773 l 5.9267,-5.50902 -12.9267,-1.283 c -7.1097,-0.70565 -45.7767,-4.52143 -85.9267,-8.4795 l -73,-7.1965 -53,26.7008 c -29.15,14.68544 -69.3399,34.89267 -89.311,44.90496 -19.971,10.0123 -36.54,18.80134 -36.8201,19.53122 -0.2801,0.72987 0.6188,4.18272 1.9976,7.67299 1.3787,3.49027 5.6971,15.12095 9.5963,25.84595 3.8992,10.725 7.5738,20.625 8.1658,22 0.592,1.375 3.0283,7.9 5.414,14.5 2.3856,6.6 7.1012,19.425 10.479,28.5 8.662,23.27158 11.7256,31.55335 14.4265,39 1.2967,3.575 5.1379,13.925 8.5359,23 3.3981,9.075 7.1358,19.3196 8.3061,22.76577 l 2.1279,6.26576 6.9658,-6.76576 c 3.8312,-3.72117 7.4922,-7.21577 8.1357,-7.76577 z m -38.075,-16.10795 c -3.6326,-9.84063 -9.6919,-26.21705 -13.465,-36.39205 -3.7732,-10.175 -9.1788,-24.8 -12.0125,-32.5 -2.8337,-7.7 -7.3955,-20.075 -10.1374,-27.5 -2.7419,-7.425 -7.2105,-19.575 -9.9303,-27 -2.7197,-7.425 -5.8148,-15.75 -6.8779,-18.5 -1.0631,-2.75 -2.8518,-7.4982 -3.9748,-10.55155 l -2.0418,-5.55156 -98.75243,-32.8381 C 78.613583,162.05616 33.500003,147.02954 32.675003,146.72463 c -1.75045,-0.64696 -1.65188,-0.54517 7.02534,7.25501 3.01106,2.70673 8.17466,7.43173 11.47466,10.5 5.50549,5.1189 22.92708,21.12163 34.9229,32.07869 2.70964,2.475 7.88548,7.24916 11.50186,10.60923 3.616377,3.36008 9.252537,8.53508 12.524807,11.5 3.27226,2.96493 8.89726,8.15059 12.5,11.5237 3.60273,3.37311 8.75735,8.09811 11.45469,10.5 2.69734,2.40189 6.11701,5.49207 7.59925,6.86707 1.48225,1.375 7.59248,7 13.5783,12.5 5.98581,5.5 13.59114,12.50018 16.90074,15.55596 3.3096,3.05577 8.45859,7.78077 11.44221,10.5 2.98362,2.71922 8.38362,7.6932 12,11.05327 3.61638,3.36008 9.25254,8.53508 12.52481,11.5 3.27226,2.96493 8.89726,8.13993 12.5,11.5 3.60273,3.36008 9.22776,8.53508 12.49996,11.5 3.2723,2.96493 8.8973,8.15059 12.5,11.5237 3.6028,3.37311 8.7574,8.09811 11.4547,10.5 2.6974,2.40189 6.113,5.49207 7.5904,6.86707 4.4037,4.09857 21.1305,19.43932 26.5039,24.3076 2.7492,2.49077 5.1228,4.40443 5.2746,4.25259 0.1519,-0.15185 -2.696,-8.32751 -6.3286,-18.16814 z m -54.9403,-175.91547 c 1.3,-3.28712 9.3975,-24.42658 17.9943,-46.97658 8.5968,-22.55 16.6733,-43.7 17.9476,-47 2.3594,-6.109877 6.1609,-15.998817 9.6105,-24.999997 1.0539,-2.75 3.5231,-9.275 5.4872,-14.5 1.9641,-5.225 4.4466,-11.75 5.5167,-14.5 7.0365,-18.08291 11.8548,-30.90903 11.663,-31.04651 -0.1229,-0.0882 -24.7485,10.0576 -54.7235,22.54609 -60.21251,25.08634 -61.30381,25.54076 -72.00003,29.98115 -4.125,1.71244 -9.525,3.98281 -12,5.04528 -2.475,1.06246 -19.35,8.0275 -37.5,15.47787 -18.15,7.45036 -35.024997,14.413657 -37.499997,15.473987 -2.475,1.06033 -7.875,3.32029 -12,5.02213 -4.125,1.70184 -9.525,3.95184 -12,5 -6.75555,2.86097 -17.14046,7.1737 -30.32189,12.59233 -6.50203,2.67286 -11.22703,5.06447 -10.5,5.31469 25.76165,8.86626 206.571017,68.86008 207.142117,68.73122 0.4512,-0.10179 1.884,-2.87454 3.184,-6.16166 z m 49.4958,-17.36073 c 86.781,-43.71917 123.5573,-62.37164 124.2522,-63.01924 0.8857,-0.82542 -1.5981,-3.60891 -21.1024,-23.648777 -37.8101,-38.84851 -68.5328,-70.58342 -70.2605,-72.57542 -1.0461,-1.20618 -2.0534,-2.00841 -2.2384,-1.78273 -0.185,0.22567 -2.2751,5.58532 -4.6446,11.91032 -3.846,10.26619 -12.0058,31.76856 -18.4049,48.5 -1.2621,3.3 -4.5719,12.075 -7.355,19.5 -2.7832,7.424997 -5.5395,14.624997 -6.1252,15.999997 -1.2432,2.91844 -28.7063,74.73566 -30.6664,80.19407 -1.2091,3.36669 -1.1772,3.6324 0.3593,2.99825 0.9272,-0.3827 17.2109,-8.51711 36.1859,-18.07647 z m 280.5,-55.67609 c -4.4,-1.92591 -8.9,-3.92163 -10,-4.43493 -2.4642,-1.14987 -16.887,-7.49314 -42.5,-18.691787 -10.725,-4.68924 -21.3,-9.32281 -23.5,-10.29681 -2.2,-0.97401 -9.2875,-4.07612 -15.75,-6.89358 -6.4625,-2.81746 -17.0375,-7.42784 -23.5,-10.2453 -6.4625,-2.81746 -13.55,-5.91227 -15.75,-6.87735 -2.2,-0.96508 -9.4,-4.11508 -16,-7 -6.6,-2.88492 -13.8,-6.03492 -16,-7 -3.865,-1.69546 -14.6035,-6.37957 -39.25,-17.12076 -6.4625,-2.81642 -14.1682,-6.21077 -17.1237,-7.54301 -2.9555,-1.33223 -5.5067,-2.28918 -5.6694,-2.12653 -0.1626,0.16264 5.8556,6.62769 13.3737,14.36677 7.5182,7.73908 23.5694,24.31572 35.6694,36.83697 12.1,12.52125 24.9768,25.823037 28.6152,29.559537 l 6.6153,6.79363 57.3847,5.65622 c 31.5616,3.11092 63.0098,6.2577 69.8848,6.99284 6.875,0.73513 14.525,1.37916 17,1.43118 l 4.5,0.0946 -8,-3.50166 z"
     style="fill:#fefefe" />
</svg>
