<?xml version="1.0" encoding="UTF-8" standalone="no"?>
<!-- Created with Inkscape (http://www.inkscape.org/) -->

<svg
   xmlns:dc="http://purl.org/dc/elements/1.1/"
   xmlns:cc="http://creativecommons.org/ns#"
   xmlns:rdf="http://www.w3.org/1999/02/22-rdf-syntax-ns#"
   xmlns:svg="http://www.w3.org/2000/svg"
   xmlns="http://www.w3.org/2000/svg"
   xmlns:sodipodi="http://sodipodi.sourceforge.net/DTD/sodipodi-0.dtd"
   xmlns:inkscape="http://www.inkscape.org/namespaces/inkscape"
   width="473.09122"
   height="220.83727"
   id="svg2"
   version="1.1"
   inkscape:version="0.48.4 r9939">
  <defs
     id="defs4" />
  <sodipodi:namedview
     id="base"
     pagecolor="#ffffff"
     bordercolor="#666666"
     borderopacity="1.0"
     inkscape:pageopacity="0.0"
     inkscape:pageshadow="2"
     inkscape:zoom="0.7"
     inkscape:cx="285.60496"
     inkscape:cy="-21.262878"
     inkscape:document-units="px"
     inkscape:current-layer="layer1"
     showgrid="false"
     fit-margin-top="0"
     fit-margin-left="0"
     fit-margin-right="0"
     fit-margin-bottom="0"
     inkscape:window-width="1366"
     inkscape:window-height="711"
     inkscape:window-x="0"
     inkscape:window-y="33"
     inkscape:window-maximized="1" />
  <metadata
     id="metadata7">
    <rdf:RDF>
      <cc:Work
         rdf:about="">
        <dc:format>image/svg+xml</dc:format>
        <dc:type
           rdf:resource="http://purl.org/dc/dcmitype/StillImage" />
        <dc:title></dc:title>
      </cc:Work>
    </rdf:RDF>
  </metadata>
  <g
     inkscape:label="Layer 1"
     inkscape:groupmode="layer"
     id="layer1"
     transform="translate(-104.65056,-431.50999)">
    <path
       inkscape:connector-curvature="0"
       id="path3306"
       d="m 167.29101,650.9949 c -7.56922,-1.5078 -12.33816,-3.68123 -13.24126,-6.03466 -0.77659,-2.02377 -0.63956,-16.13263 0.22772,-23.44478 0.47384,-3.99504 1.10499,-5.57611 2.31829,-5.80738 1.30006,-0.24781 1.93112,0.96103 2.86574,5.48958 1.59848,7.74517 4.12294,12.46379 8.68805,16.23938 9.65207,7.98277 25.8276,7.87008 36.47916,-0.25414 6.098,-4.6511 8.76316,-9.82233 8.78341,-17.04253 0.0259,-9.23346 -3.01928,-13.75047 -16.3511,-24.25408 -6.12285,-4.82395 -14.95745,-11.79217 -19.63245,-15.48493 -16.56578,-13.08523 -21.89375,-24.2641 -18.42135,-38.6507 l 1.65221,-6.84533 -2.97886,-5.95015 c -3.32962,-6.65078 -14.77259,-32.47718 -21.40862,-48.31855 -2.38886,-5.70262 -4.79338,-10.34775 -5.34338,-10.32251 -0.56516,0.0259 -3.15853,17.95948 -5.96398,41.24192 l -4.96399,41.19602 2.84147,2.26571 c 4.36769,3.48267 2.59604,4.48727 -7.9135,4.48727 -10.33483,0 -12.47075,-1.08898 -8.2156,-4.18863 3.48002,-2.53503 3.62706,-3.40544 10.69525,-63.31137 3.30957,-28.05 6.37151,-52.34691 6.80433,-53.99313 0.43281,-1.64623 1.48569,-3.1277 2.33972,-3.29218 1.81939,-0.35038 3.67979,3.59738 22.8832,48.55798 7.34639,17.19997 13.83768,31.11385 14.42509,30.91974 0.5874,-0.19411 8.32934,-17.86681 17.2043,-39.27267 8.87496,-21.40586 16.82352,-39.81974 17.66347,-40.91974 1.2038,-1.5765 1.7922,-1.74272 2.77872,-0.78499 0.76317,0.7409 3.32607,17.32506 6.56789,42.5 2.924,22.70674 5.6993,41.94099 6.16734,42.74276 0.46804,0.80178 2.26604,1.82445 3.99556,2.27261 1.72951,0.44816 3.63792,1.73669 4.24091,2.86339 1.53295,2.86433 2.56001,23.9097 1.20794,24.75152 -0.57836,0.36009 -5.43602,0.42971 -10.7948,0.15471 l -9.74323,-0.5 -0.18612,-9.38624 c -0.2334,-11.76994 -0.89383,-12.47973 -11.03397,-11.85867 -12.36543,0.75736 -19.99694,6.70174 -21.1548,16.47804 -1.10221,9.30644 4.55641,16.61159 24.55957,31.7058 24.20711,18.26647 32.4934,29.24915 32.52408,43.1075 0.0359,16.20647 -12.13939,28.83419 -31.69579,32.87368 -9.0599,1.87137 -19.69737,1.89707 -28.87062,0.0697 z m 50.82067,-110.67736 c -0.31922,-0.79773 -0.55618,-0.56078 -0.60416,0.60417 -0.0434,1.05416 0.19292,1.64479 0.52522,1.3125 0.33229,-0.33229 0.36781,-1.1948 0.0789,-1.91667 z m -43.53094,-16.38961 c 5.50269,-2.78843 16.08765,-5.3777 22.09783,-5.40553 4.56653,-0.0211 4.46835,2.02838 1.20967,-25.25127 -3.00819,-25.18276 -3.22988,-26.39588 -4.5774,-25.04836 -0.88888,0.88888 -24.88227,56.64162 -24.88227,57.81821 0,0.83999 1.00748,0.49396 6.15217,-2.11305 z M 498.92857,649.8146 c -7.30814,-0.53884 -8.12627,-0.96005 -6.13612,-3.15915 0.89987,-0.99434 1.64298,-2.22246 1.65137,-2.72915 0.008,-0.50669 -3.87211,-10.48376 -8.62334,-22.17126 l -8.63859,-21.25 -18.75422,0 c -14.14556,0 -19.01872,0.31871 -19.83059,1.29696 -1.47377,1.77578 -9.81416,21.81322 -10.63484,25.54976 -0.66988,3.04991 1.21105,6.10282 4.59133,7.45215 1.1368,0.45378 1.11514,0.73553 -0.125,1.62638 -2.08517,1.49786 -25.20448,0.9728 -25.72127,-0.58416 -0.21157,-0.6374 0.92104,-1.44569 2.51692,-1.79621 3.49545,-0.76773 8.24475,-5.55789 11.03033,-11.12524 4.79292,-9.57927 22.17402,-53.06121 22.17402,-55.47229 0,-1.45055 0.8732,-3.42761 1.94044,-4.39345 4.80164,-4.34542 5.0605,-7.47382 5.04591,-60.98204 -0.008,-27.53952 -0.285,-51.08436 -0.61664,-52.32186 -0.6691,-2.49677 -4.66522,-3.15612 -6.06069,-1 -0.44496,0.6875 -1.03402,21.5 -1.30902,46.25 -0.57202,51.48139 -0.73971,52.65746 -8.78411,61.60478 -4.77838,5.3147 -16.58479,11.89522 -21.34177,11.89522 -1.64661,0 -3.31076,0.74146 -3.92774,1.75 -0.58881,0.9625 -6.33013,14.35 -12.75848,29.75 -13.72238,32.87387 -13.46757,32.37711 -15.85471,30.9098 -1.06159,-0.65253 -7.47676,-15.44354 -15.97948,-36.84274 -7.81322,-19.66389 -14.42145,-35.96813 -14.68496,-36.23164 -0.26351,-0.26351 -2.43428,0.17763 -4.82393,0.98032 -9.99952,3.35887 -29.15887,2.95263 -43.34482,-0.91906 -3.3,-0.90065 -7.04144,-1.86634 -8.31431,-2.14598 l -2.3143,-0.50844 0.3143,32.05753 c 0.30129,30.72937 0.40114,32.17374 2.41011,34.86263 3.1437,4.20766 8.8872,5.49701 22.9042,5.14173 14.77746,-0.37455 17.75457,-1.6974 21.5,-9.55335 3.77901,-7.92638 5.43637,-7.04349 4.69149,2.4992 -0.71138,9.11358 -2.1992,13.91617 -4.73093,15.27111 -2.05816,1.10149 -42.04486,1.32717 -57.21056,0.32289 -9.77894,-0.64756 -11.85809,-1.59201 -7.3108,-3.32088 4.92784,-1.87356 5.03984,-2.80955 5.36447,-44.83149 l 0.30368,-39.30837 -5.58529,-6.03278 c -10.22809,-11.04755 -14.48151,-22.88972 -14.50728,-40.39038 -0.0265,-17.97888 4.84129,-30.46436 16.40232,-42.07085 11.57057,-11.61607 22.62839,-16.04344 42.5829,-17.04951 14.41888,-0.72697 28.7016,0.93156 35.75,4.15135 4.97873,2.27435 5.25182,2.59488 5.28513,6.20359 0.0193,2.09292 0.67851,6.73032 1.46487,10.30532 1.87336,8.5168 1.90775,13 0.0997,13 -0.85768,0 -1.87512,-1.97945 -2.62575,-5.10843 -2.2684,-9.45575 -9.82922,-15.43316 -24.08329,-19.0397 -13.6882,-3.46337 -33.12472,-1.44732 -43.15469,4.4762 -10.88675,6.42953 -16.43583,16.97551 -18.24362,34.67193 -0.79174,7.75037 1.0255,22.54429 3.17787,25.87063 1.49834,2.31558 1.81392,2.36202 13.59129,2 8.37226,-0.25736 12.17472,-0.0251 12.44143,0.75992 0.21259,0.62575 -1.13679,1.41586 -3.02214,1.76955 -5.54713,1.04065 -6.91971,3.42427 -7.05906,12.25874 -0.12164,7.71158 -0.11894,7.71982 3.28511,10.03558 6.56828,4.46838 18.50201,7.48974 31.81432,8.05471 10.15446,0.43095 12.636,0.24686 14.67416,-1.08859 6.48009,-4.24592 2.80183,-12.05142 -6.64533,-14.1018 -4.62943,-1.00475 -3.06606,-2.44245 3,-2.75884 5.39143,-0.2812 5.76918,-0.46562 6.05749,-2.95738 0.4006,-3.46211 -3.16579,-6.83742 -7.24605,-6.85783 -3.63446,-0.0182 -6.07467,-1.34526 -5.1688,-2.81098 0.97975,-1.58526 32.82517,-1.02027 33.36256,0.5919 0.42013,1.26037 -0.2757,1.63664 -4.87861,2.63815 -1.68019,0.36557 -3.06941,1.64754 -3.86388,3.56556 -1.76404,4.25875 -0.74863,6.03068 3.45591,6.03068 4.32122,0 4.55316,1.17585 0.53138,2.6939 -1.99767,0.75403 -3,1.8215 -3,3.19495 0,1.53431 17.1753,49.25395 23.54005,65.40341 0.3885,0.98575 1.15139,1.64393 1.6953,1.46262 1.24417,-0.41472 15.92479,-36.89373 15.39914,-38.2644 -0.21294,-0.55524 -2.37867,-1.54217 -4.81274,-2.19318 -9.84023,-2.63186 -19.51997,-11.91974 -21.89415,-21.00782 -0.88446,-3.38562 -1.42362,-20.2622 -1.8394,-57.57684 -0.62755,-56.31862 -0.46516,-54.65469 -5.3382,-54.69733 -0.9625,-0.008 -1.75,-0.46531 -1.75,-1.01531 0,-0.61464 4.91336,-0.99809 12.75,-0.99503 l 12.75,0.005 -3,2.39968 -3,2.39968 -0.28327,48.34535 c -0.29229,49.88283 0.24312,59.52348 3.62754,65.31841 2.23744,3.83101 10.02124,8.66808 14.27465,8.87066 l 3.28131,0.15628 6.4262,-15 c 3.53441,-8.25 6.48186,-16.575 6.54989,-18.5 0.10994,-3.11112 -0.18187,-3.53516 -2.62632,-3.81642 -1.574,-0.18111 -2.75,-0.92947 -2.75,-1.75 0,-1.16471 2.23824,-1.43361 11.93261,-1.43361 11.27412,0 11.96969,-0.11682 12.60451,-2.11696 0.36955,-1.16433 0.34026,-16.7372 -0.0651,-34.60638 l -0.73696,-32.48941 -3.61753,-1.64363 -3.61753,-1.64362 9.5,-0.5 c 9.12734,-0.48039 9.49066,-0.58826 9.26179,-2.75 l -0.23821,-2.25 23.28821,0 c 16.77972,0 23.62358,0.33537 24.48821,1.2 1.39826,1.39826 1.63495,12.41315 0.28467,13.24767 -0.50343,0.31114 -2.24085,-0.54965 -3.86093,-1.91286 -4.39755,-3.70029 -7.49093,-4.53481 -16.80955,-4.53481 l -8.4556,0 0.2707,20.25 0.27071,20.25 16.14738,0 c 14.30208,0 16.38047,-0.21118 18.18699,-1.84796 2.92108,-2.64662 4.35552,-1.23559 3.74781,3.68663 -0.28258,2.28873 -0.78998,7.19883 -1.12757,10.91133 -0.63321,6.96347 -1.83498,8.50996 -3.40468,4.38132 -0.49531,-1.30277 -2.11986,-3.32777 -3.61011,-4.5 -2.46928,-1.94233 -3.93896,-2.13132 -16.57468,-2.13132 l -13.86514,0 0.0356,16.25 0.0357,16.25 5.3403,13 5.3403,13 10.9652,-0.0309 c 14.35606,-0.0405 17.49248,-2.06127 19.74086,-12.71909 0.53524,-2.53715 3.54204,-4.02271 3.54204,-1.75001 0,2.50336 3.27044,0.6261 4.79087,-2.75 1.4869,-3.30164 1.72889,-9.13031 2.02401,-48.75 0.18435,-24.75 0.044,-46.94494 -0.31193,-49.32208 -0.7522,-5.02396 -3.45302,-8.17792 -7.00295,-8.17792 -1.48967,0 -2.5,-0.57226 -2.5,-1.41604 0,-1.16156 2.88676,-1.42057 16.06377,-1.44129 11.6334,-0.0183 15.95847,0.29062 15.68198,1.12009 -0.20999,0.62995 -1.73778,1.49673 -3.3951,1.92618 -6.61558,1.71427 -6.44982,0.71299 -7.03145,42.4748 -0.60989,43.79094 0.14339,55.2534 3.87643,58.98643 4.82765,4.82766 31.4871,5.40864 38.46247,0.8382 1.39156,-0.91179 3.65628,-4.11767 5.03271,-7.12418 1.37643,-3.00652 3.02158,-5.28293 3.65589,-5.05871 2.44369,0.86383 -0.18026,20.48355 -3.05833,22.86768 -1.27779,1.0585 -8.13399,1.25619 -33.90106,0.97749 l -32.29934,-0.34935 -0.49139,2.34935 c -0.27027,1.29214 -0.77707,4.97385 -1.12622,8.18158 -1.00738,9.255 -2.3346,10.05223 -15.6817,9.4196 -8.65321,-0.41014 -11.04982,-0.23482 -11.46168,0.83846 -0.85193,2.22009 27.29186,70.40243 30.39877,73.64534 1.48452,1.54951 4.06603,3.17148 5.73669,3.60439 1.67066,0.43292 3.03756,1.43351 3.03756,2.22355 0,1.50731 -8.18019,2.04375 -19,1.24599 z m -26.7196,-59.40118 c 0.16789,-0.8754 -1.54735,-6.3879 -3.81164,-12.25 l -4.11689,-10.65838 -5.80349,0 c -3.45613,0 -6.19785,0.50559 -6.77849,1.25 -2.07986,2.66649 -8.51186,20.67707 -7.9278,22.19908 0.53277,1.38839 2.4931,1.56967 14.37498,1.32927 11.6443,-0.23558 13.80499,-0.52289 14.06333,-1.86997 z m -46.22936,-37.31779 c 4.91099,-4.72299 6.10234,-8.23301 7.0708,-20.83228 0.49769,-6.47474 0.33727,-9.10265 -0.62653,-10.26396 -1.15838,-1.39577 -1.55449,-1.31932 -3.74272,0.72234 -1.34597,1.25582 -3.24197,3.85831 -4.21332,5.78331 -3.58728,7.10916 -12.09656,29.09829 -11.58234,29.93032 1.13956,1.84384 8.92645,-1.33162 13.09411,-5.33973 z m -189.55104,32.67281 c 0,-0.56018 0.675,-1.57871 1.5,-2.2634 2.03739,-1.69088 2.03449,-1.74984 -2.48033,-50.51127 -4.84609,-52.33914 -4.67911,-51.09354 -7.15938,-53.40426 -2.64762,-2.46663 -1.50094,-3.06329 7.3062,-3.80165 6.78787,-0.56907 7.12543,-0.49942 6.33972,1.30805 -1.77388,4.08074 -1.4494,10.43693 2.85248,55.87561 l 4.44652,46.96647 2.80832,2.23927 c 1.54457,1.2316 2.51528,2.53231 2.15712,2.89046 -1.15221,1.15222 -17.77065,1.80751 -17.77065,0.70072 z"
       style="fill:#1a1a1a" />
  </g>
</svg>
